<?xml version="1.0" encoding="UTF-8" standalone="no"?>
<!DOCTYPE svg PUBLIC "-//W3C//DTD SVG 1.1//EN" "http://www.w3.org/Graphics/SVG/1.1/DTD/svg11.dtd">
<svg width="100%" height="100%" viewBox="0 0 36 36" version="1.1" xmlns="http://www.w3.org/2000/svg" xmlns:xlink="http://www.w3.org/1999/xlink" xml:space="preserve" xmlns:serif="http://www.serif.com/" style="fill-rule:evenodd;clip-rule:evenodd;stroke-linecap:round;stroke-linejoin:round;stroke-miterlimit:1.5;">
    <g transform="matrix(1.23029,0,0,1.23029,-4.14519,-4.55487)">
        <path d="M28.247,14.486L28.247,30.071C28.247,30.515 28.071,30.941 27.757,31.255C27.68,31.332 23.055,33.456 18.277,32.025C14.365,30.853 12.907,30.449 9.161,31.746C8.383,31.746 7.753,31.115 7.753,30.337L7.753,14.45C7.753,11.746 8.827,9.153 10.739,7.241C12.651,5.329 15.245,4.254 17.949,4.254L18.016,4.254C23.666,4.254 28.247,8.835 28.247,14.486ZM23.862,13.326L19.748,13.326C19.738,13.41 19.733,13.495 19.733,13.582C19.733,14.726 20.661,15.655 21.805,15.655C22.949,15.655 23.878,14.726 23.878,13.582C23.878,13.495 23.873,13.41 23.862,13.326ZM15.746,13.25L11.632,13.25C11.621,13.334 11.616,13.42 11.616,13.507C11.616,14.651 12.545,15.58 13.689,15.58C14.833,15.58 15.761,14.651 15.761,13.507C15.761,13.42 15.756,13.334 15.746,13.25Z" style="fill:rgb(226,0,203);stroke:black;stroke-width:0.53px;"/>
    </g>
</svg>
